<svg width="640" height="420" viewBox="0 0 640 420" fill="none" xmlns="http://www.w3.org/2000/svg">
  <rect x="70" y="56" width="360" height="226" rx="20" fill="#0B1220"/>
  <rect x="96" y="82" width="308" height="164" rx="10" fill="url(#monitor)"/>
  <rect x="224" y="282" width="52" height="50" fill="#A8B7C7"/>
  <rect x="164" y="332" width="172" height="20" rx="10" fill="#DDE8F3"/>
  <rect x="460" y="70" width="102" height="282" rx="20" fill="#111827"/>
  <rect x="480" y="96" width="62" height="88" rx="12" fill="#1E3A5F"/>
  <circle cx="511" cy="238" r="34" fill="#0D62A7"/>
  <circle cx="511" cy="238" r="18" fill="#7DD3FC"/>
  <rect x="490" y="298" width="42" height="10" rx="5" fill="#7CFFB2"/>
  <path d="M152 204L212 128L266 194L312 144L364 218H152V204Z" fill="#60A5FA" opacity="0.82"/>
  <circle cx="338" cy="116" r="24" fill="#7CFFB2" opacity="0.9"/>
  <defs>
    <linearGradient id="monitor" x1="96" y1="82" x2="404" y2="246" gradientUnits="userSpaceOnUse">
      <stop stop-color="#0EA5E9"/>
      <stop offset="0.48" stop-color="#123C69"/>
      <stop offset="1" stop-color="#111827"/>
    </linearGradient>
  </defs>
</svg>
